<?xml version="1.0" encoding="UTF-8"?>
<svg xmlns="http://www.w3.org/2000/svg" width="400" height="250">
<path d="M0 0 C0.99 0 1.98 0 3 0 C3.34256836 0.73114014 3.68513672 1.46228027 4.03808594 2.21557617 C5.60181223 5.54284997 7.17578596 8.86517619 8.75 12.1875 C9.28882812 13.33798828 9.82765625 14.48847656 10.3828125 15.67382812 C10.91132812 16.78564453 11.43984375 17.89746094 11.984375 19.04296875 C12.46616211 20.06414795 12.94794922 21.08532715 13.44433594 22.13745117 C15.03178419 25.0584855 16.84865245 27.47318142 19 30 C24.37503853 20.15739698 29.36474309 10.21205038 34 0 C34.99 0 35.98 0 37 0 C38.39614611 3.87488738 39.79190842 7.74991287 41.1875 11.625 C41.8055249 13.3409436 41.8055249 13.3409436 42.43603516 15.09155273 C44.97246658 22.13691808 47.4985908 29.18569347 50.00390625 36.2421875 C50.90568228 38.73886936 51.85043009 41.21360595 52.8125 43.6875 C54 47 54 47 54 50 C49.2934677 50.32836272 46.7712163 49.86588456 43 47 C41.5234375 44.21484375 41.5234375 44.21484375 40.375 40.9375 C39.96507812 39.78636719 39.55515625 38.63523438 39.1328125 37.44921875 C37.86741515 33.59630201 36.66224639 29.73600442 35.578125 25.828125 C35.15489378 24.00123051 35.15489378 24.00123051 34 23 C33.23816406 24.54107422 33.23816406 24.54107422 32.4609375 26.11328125 C28.46520435 34.16705919 24.38993971 42.15131991 20 50 C19.01 50 18.02 50 17 50 C7.23404255 31.65957447 7.23404255 31.65957447 3 23 C1.00098964 27.22013298 -0.8422661 31.36299704 -2.203125 35.83203125 C-2.40848877 36.498396 -2.61385254 37.16476074 -2.82543945 37.85131836 C-3.22791946 39.182055 -3.61497665 40.51757148 -3.98510742 41.85766602 C-4.9750271 45.11062046 -5.75399672 46.80609614 -8.453125 48.93359375 C-11.46382879 50.19421052 -13.76696411 50.22556064 -17 50 C-17.27148262 46.92319698 -17.10211353 45.20300048 -15.69921875 42.4140625 C-13.6112773 38.21898015 -12.13403884 33.92951489 -10.625 29.5 C-10.00944843 27.71733261 -9.39356106 25.93478113 -8.77734375 24.15234375 C-8.47683105 23.2794873 -8.17631836 22.40663086 -7.86669922 21.50732422 C-6.66064785 18.01826858 -5.42749783 14.53964524 -4.1875 11.0625 C-3.80980469 10.00160156 -3.43210937 8.94070312 -3.04296875 7.84765625 C-2.07691071 5.20999216 -1.05885172 2.60161304 0 0 Z " fill="#FDFDFD" transform="translate(33,95)"/>
<path d="M0 0 C5.19390749 3.12952143 9.21072254 7.38448781 11 13.25 C12.26522659 20.14881448 11.64947427 26.25656041 8 32.3125 C4.77061708 36.59560176 1.8459525 39.20822215 -3.4375 40.4375 C-10.60675494 41.18347943 -18.41228344 41.7947007 -24.7890625 37.91015625 C-30.16262784 33.10960143 -33.12991397 27.35922188 -33.6875 20.25 C-33.23067934 13.28348496 -31.84070145 8.29021678 -26.5625 3.5 C-19.25314881 -2.56246187 -8.77094106 -3.94523024 0 0 Z M-21.6875 10.5 C-24.05805128 14.47913965 -24.74481096 17.82015282 -24.4375 22.4375 C-23.16639366 27.26268658 -21.41503023 29.81714428 -17.1875 32.5 C-12.87462101 33.57821975 -9.66817958 33.86770949 -5.4375 32.4375 C-2.48384168 30.60265165 -0.01964727 28.60179453 1.5625 25.4375 C2.29701331 16.86948628 2.29701331 16.86948628 -1.4375 9.4375 C-4.43230287 6.44269713 -6.68249196 6.47868226 -10.875 6.25 C-15.65354389 6.50150231 -18.15224659 7.25935104 -21.6875 10.5 Z " fill="#FBFBFB" transform="translate(119.4375,104.5625)"/>
<path d="M0 0 C4.64441245 1.16110311 5.87733173 2.58752469 9.125 6 C12.2335286 9.44052785 12.2335286 9.44052785 16 12 C16 12.66 16 13.32 16 14 C17.32 14.66 18.64 15.32 20 16 C22.31 18.31 24.62 20.62 27 23 C27.33 15.41 27.66 7.82 28 0 C30.97 0 33.94 0 37 0 C37 14.19 37 28.38 37 43 C33.08216932 41.04108466 30.33046235 38.76521998 27.1875 35.8125 C26.39182617 35.07483398 26.39182617 35.07483398 25.58007812 34.32226562 C22.13332345 31.11118648 18.76289294 27.83634682 15.5 24.4375 C13.79925489 22.80761927 11.8845129 21.41338468 10 20 C9.67 27.26 9.34 34.52 9 42 C6.03 42 3.06 42 0 42 C0 28.14 0 14.28 0 0 Z " fill="#FCFCFC" transform="translate(208,103)"/>
<path d="M0 0 C1.25159912 0.00523682 2.50319824 0.01047363 3.79272461 0.01586914 C4.78942421 0.01799156 4.78942421 0.01799156 5.80625916 0.02015686 C7.93590735 0.02577021 10.06545175 0.03832485 12.19506836 0.05102539 C13.63582205 0.05603868 15.07657739 0.06060188 16.51733398 0.06469727 C20.05577938 0.07574394 23.59416375 0.09301747 27.13256836 0.11352539 C27.13256836 2.75352539 27.13256836 5.39352539 27.13256836 8.11352539 C20.20256836 8.11352539 13.27256836 8.11352539 6.13256836 8.11352539 C6.13256836 11.41352539 6.13256836 14.71352539 6.13256836 18.11352539 C11.41256836 18.11352539 16.69256836 18.11352539 22.13256836 18.11352539 C22.13256836 20.75352539 22.13256836 23.39352539 22.13256836 26.11352539 C16.85256836 26.11352539 11.57256836 26.11352539 6.13256836 26.11352539 C6.13256836 29.08352539 6.13256836 32.05352539 6.13256836 35.11352539 C7.39713867 35.02973633 8.66170898 34.94594727 9.96459961 34.85961914 C11.62473676 34.75644678 13.28489411 34.65359909 14.94506836 34.55102539 C16.19513672 34.46691406 16.19513672 34.46691406 17.47045898 34.38110352 C18.27290039 34.33276367 19.0753418 34.28442383 19.90209961 34.23461914 C20.64049072 34.18748779 21.37888184 34.14035645 22.13964844 34.09179688 C24.13256836 34.11352539 24.13256836 34.11352539 27.13256836 35.11352539 C27.13256836 37.42352539 27.13256836 39.73352539 27.13256836 42.11352539 C16.90256836 42.11352539 6.67256836 42.11352539 -3.86743164 42.11352539 C-3.89033803 36.29275728 -3.9102659 30.47214439 -3.92236328 24.65136719 C-3.92740431 22.66959098 -3.93423702 20.6878185 -3.94287109 18.70605469 C-3.95494679 15.86400431 -3.96066209 13.02200292 -3.96508789 10.17993164 C-3.97024918 9.28826797 -3.97541046 8.39660431 -3.98072815 7.47792053 C-3.98092341 5.35611938 -3.92953194 3.23441759 -3.86743164 1.11352539 C-2.86743164 0.11352539 -2.86743164 0.11352539 0 0 Z " fill="#FCFCFC" transform="translate(175.867431640625,102.886474609375)"/>
<path d="M0 0 C2.97 0 5.94 0 9 0 C9.33 4.62 9.66 9.24 10 14 C11.670625 12.2675 11.670625 12.2675 13.375 10.5 C15.2734375 8.53125 15.2734375 8.53125 17 7 C17.66 7 18.32 7 19 7 C19.268125 6.401875 19.53625 5.80375 19.8125 5.1875 C21.05904058 2.89124104 21.93414048 1.59469858 24 0 C26.69921875 -0.29296875 26.69921875 -0.29296875 29.6875 -0.1875 C30.68136719 -0.16042969 31.67523438 -0.13335937 32.69921875 -0.10546875 C33.45847656 -0.07066406 34.21773438 -0.03585938 35 0 C32.4305136 5.75615335 27.64988983 9.72308505 22.8125 13.625 C20.1188864 15.89960704 18.1519269 18.22599573 16 21 C18.60006076 23.62909425 21.20573957 26.2525497 23.8125 28.875 C24.55048828 29.62136719 25.28847656 30.36773437 26.04882812 31.13671875 C26.76103516 31.85214844 27.47324219 32.56757813 28.20703125 33.3046875 C28.8616333 33.96452637 29.51623535 34.62436523 30.19067383 35.30419922 C32.0945646 37.18168292 32.0945646 37.18168292 35 39 C35 39.99 35 40.98 35 42 C30.58258407 42.61242737 26.65619713 43.04373036 22.76855469 40.59375 C20.67242323 38.65419704 18.7649418 36.64064837 16.875 34.5 C16.2046875 33.78457031 15.534375 33.06914062 14.84375 32.33203125 C13.20535766 30.57661088 11.59924659 28.79115618 10 27 C9.67 31.95 9.34 36.9 9 42 C6.03 42 3.06 42 0 42 C0 28.14 0 14.28 0 0 Z " fill="#FCFCFC" transform="translate(346,103)"/>
<path d="M0 0 C0.89074219 -0.020625 1.78148437 -0.04125 2.69921875 -0.0625 C9.93439073 -0.10512252 14.71552926 0.93003617 20.3125 5.8125 C22.9076955 9.26988669 23.08831269 12.61866838 22.859375 16.84765625 C21.852059 21.84361869 18.88054341 24.12084244 14.875 27.125 C9.36694249 28.89544706 4.14030956 28.42648907 -1.625 28.25 C-1.625 32.87 -1.625 37.49 -1.625 42.25 C-4.595 42.25 -7.565 42.25 -10.625 42.25 C-10.64964638 36.42928378 -10.6678343 30.60859766 -10.67993164 24.7878418 C-10.68497267 22.80606559 -10.69180538 20.82429311 -10.70043945 18.8425293 C-10.71251515 16.00047891 -10.71823045 13.15847753 -10.72265625 10.31640625 C-10.72781754 9.42474258 -10.73297882 8.53307892 -10.73829651 7.61439514 C-10.73849177 5.49259399 -10.6871003 3.3708922 -10.625 1.25 C-8.35200219 -1.02299781 -3.04888636 0.01720105 0 0 Z M-1.625 8.25 C-1.625 11.88 -1.625 15.51 -1.625 19.25 C0.49938339 19.33078641 2.6246323 19.38909141 4.75 19.4375 C5.93335938 19.47230469 7.11671875 19.50710937 8.3359375 19.54296875 C9.33882813 19.44628906 10.34171875 19.34960938 11.375 19.25 C13.52262184 16.02856724 13.936068 14.9904533 13.375 11.25 C11.09941225 9.00112102 9.78538832 8.2929876 6.578125 7.95703125 C5.60359375 7.99183594 4.6290625 8.02664062 3.625 8.0625 C1.8925 8.124375 0.16 8.18625 -1.625 8.25 Z " fill="#FBFBFB" transform="translate(261.625,102.75)"/>
<path d="M0 0 C0.99 0.66 1.98 1.32 3 2 C3 2.99 3 3.98 3 5 C1.25 6.75 1.25 6.75 -1 8 C-3.38037113 7.7696415 -5.03925379 6.98093387 -7.1875 5.9375 C-12.18717401 4.270942 -17.0087544 4.2373953 -21.9375 6.125 C-25.52098754 9.38271594 -25.89420576 12.81510447 -26.3125 17.5 C-25.96058952 21.44139742 -25.17390722 23.70165801 -23 27 C-20.16269581 29.36442016 -18.35486074 29.9531316 -14.6875 30.4375 C-10.69224395 29.96348657 -8.15517541 28.83043324 -4.69921875 26.875 C-3 26 -3 26 -1 26 C1.1875 28.3125 1.1875 28.3125 3 31 C2 34 2 34 0.29296875 35.1328125 C-0.40183594 35.46023437 -1.09664063 35.78765625 -1.8125 36.125 C-2.49957031 36.45757812 -3.18664062 36.79015625 -3.89453125 37.1328125 C-11.66148708 40.33181842 -18.764719 39.38335889 -26.4375 36.41015625 C-31.44183272 33.65624754 -34.22412757 29.32761728 -36 24 C-37.12365997 9.33715839 -37.12365997 9.33715839 -32 3 C-22.81293909 -6.40071349 -10.78417133 -7.26280926 0 0 Z " fill="#FDFDFD" transform="translate(339,107)"/>
<path d="M0 0 C2.97 0 5.94 0 9 0 C12.69518527 7.98718741 16.36920159 15.98332563 20 24 C21.70225994 21.44661009 22.89793236 19.15511896 24.12890625 16.3671875 C24.52400391 15.47902344 24.91910156 14.59085938 25.32617188 13.67578125 C25.73416016 12.75152344 26.14214844 11.82726562 26.5625 10.875 C27.37422334 9.03814248 28.18791987 7.20215523 29.00390625 5.3671875 C29.36299072 4.55362793 29.7220752 3.74006836 30.09204102 2.90185547 C31 1 31 1 32 0 C33.51928038 -0.07179964 35.04167482 -0.08392007 36.5625 -0.0625 C37.38878906 -0.05347656 38.21507812 -0.04445313 39.06640625 -0.03515625 C39.70449219 -0.02355469 40.34257812 -0.01195313 41 0 C39.62057276 4.43606019 37.88757766 8.51197955 35.84765625 12.68359375 C35.54685654 13.30218765 35.24605682 13.92078156 34.93614197 14.55812073 C33.98173763 16.51963152 33.02245054 18.47869834 32.0625 20.4375 C31.10684573 22.39307196 30.15230063 24.3491697 29.1995697 26.3061676 C28.33332342 28.08469941 27.46375594 29.86161249 26.59399414 31.63842773 C24.97094797 35.0612678 23.47014853 38.5094022 22 42 C21.01 42 20.02 42 19 42 C14.24221655 32.60712666 9.58475745 23.16604111 5 13.6875 C4.50717529 12.67937256 4.01435059 11.67124512 3.5065918 10.63256836 C2.82270386 9.2114978 2.82270386 9.2114978 2.125 7.76171875 C1.51011719 6.492677 1.51011719 6.492677 0.8828125 5.19799805 C0 3 0 3 0 0 Z " fill="#F9F9F9" transform="translate(129,103)"/>
<path d="M0 0 C4.29 0 8.58 0 13 0 C13 0.66 13 1.32 13 2 C14.02287109 2.09474609 14.02287109 2.09474609 15.06640625 2.19140625 C19.03941062 3.28649534 21.69975457 5.45255652 24.9375 7.9375 C29.17860636 11.18610476 32.74117172 13.59496954 38 15 C38 14.34 38 13.68 38 13 C39.6029053 12.18501438 41.20737278 11.37310073 42.8125 10.5625 C43.70582031 10.11003906 44.59914062 9.65757813 45.51953125 9.19140625 C49.09368058 7.47468886 51.76597502 6.8806663 55.6875 6.9375 C56.89986328 6.95103516 56.89986328 6.95103516 58.13671875 6.96484375 C59.05904297 6.98224609 59.05904297 6.98224609 60 7 C60 7.99 60 8.98 60 10 C58.9275 10.2475 57.855 10.495 56.75 10.75 C52.95411278 12.01529574 51.60376183 13.1069313 49 16 C48.34 16 47.68 16 47 16 C47 16.66 47 17.32 47 18 C41.55615683 21.99215166 37.77964171 23.55570834 31 23 C24.18253025 20.65607621 18.32362362 16.14813523 14.0625 10.375 C10.40248033 6.16043189 5.37807385 4.20046291 0 3 C0 2.01 0 1.02 0 0 Z " fill="#FAFAFA" transform="translate(190,76)"/>
<path d="M0 0 C2.97 0 5.94 0 9 0 C9 13.86 9 27.72 9 42 C6.03 42 3.06 42 0 42 C0 28.14 0 14.28 0 0 Z " fill="#FBFBFB" transform="translate(289,103)"/>
<path d="M0 0 C3.38305471 1.7565861 5.45478197 3.09920499 7.4375 6.375 C8.15280486 9.71308937 8.02173019 11.73046338 7 15 C5.0625 17.875 5.0625 17.875 2 20 C-2.96036579 20.93668648 -6.72866106 20.77837078 -11.0625 18.125 C-13.5703929 15.37440779 -13.95767187 14.44867818 -14.3125 10.6875 C-13.9475203 6.38073959 -13.06016472 4.97516014 -10 2 C-6.73065722 -0.28853994 -3.9301848 -0.47162218 0 0 Z M-7.875 6.1875 C-9.40659584 8.65507108 -9.42822025 10.14519831 -9 13 C-7.98029682 14.93654948 -7.98029682 14.93654948 -6 16 C-2.85514075 16.39310741 -0.86718329 16.47555213 1.9375 14.9375 C3.64787795 11.81857551 2.80513863 9.34442199 2 6 C-1.3146051 4.34269745 -4.70112148 4.17737694 -7.875 6.1875 Z " fill="#FBFBFB" transform="translate(85,153)"/>
<path d="M0 0 C11.06341463 -0.48630394 11.06341463 -0.48630394 15.25 1.6875 C17 4 17 4 17.5 6.5625 C16.93215055 9.33076608 16.18476274 10.27039616 14 12 C14.495 12.598125 14.99 13.19625 15.5 13.8125 C17 16 17 16 17 19 C14.75 19.375 14.75 19.375 12 19 C9.875 16.0625 9.875 16.0625 8 13 C7.01 12.67 6.02 12.34 5 12 C5 14.31 5 16.62 5 19 C3.35 19 1.7 19 0 19 C0 12.73 0 6.46 0 0 Z M5 4 C5 5.32 5 6.64 5 8 C7.31 8 9.62 8 12 8 C11.67 6.68 11.34 5.36 11 4 C9.02 4 7.04 4 5 4 Z " fill="#F9F9F9" transform="translate(206,154)"/>
<path d="M0 0 C2.4375 1.875 2.4375 1.875 4 4 C4 4.99 4 5.98 4 7 C3.01 7.495 3.01 7.495 2 8 C2.66 8.66 3.32 9.32 4 10 C4.42151163 13.30184112 4.62848726 15.18023401 2.5625 17.875 C-1.28723303 19.5651267 -4.86621943 19.69022758 -9 19 C-11.5625 17.25 -11.5625 17.25 -13 15 C-13 13.68 -13 12.36 -13 11 C-12.34 10.67 -11.68 10.34 -11 10 C-11.66 9.34 -12.32 8.68 -13 8 C-12.9375 5.0625 -12.9375 5.0625 -12 2 C-8.08902473 -1.56588922 -4.96199952 -1.3532726 0 0 Z M-8 4 C-7.67 4.99 -7.34 5.98 -7 7 C-5.02 7 -3.04 7 -1 7 C-1.33 6.01 -1.66 5.02 -2 4 C-3.98 4 -5.96 4 -8 4 Z M-9 11 C-8.34 12.32 -7.68 13.64 -7 15 C-5.02 15 -3.04 15 -1 15 C-1 14.01 -1 13.02 -1 12 C-3.64 11.67 -6.28 11.34 -9 11 Z " fill="#F8F8F8" transform="translate(259,154)"/>
<path d="M0 0 C3.49406513 3.05730699 4.80770576 4.92315225 5.625 9.5 C5.01085803 12.93919503 4.25315481 15.30466924 1.82421875 17.88671875 C-2.15039055 20.31233685 -6.588765 19.97880477 -11 19 C-13.90434757 17.28351193 -14.35759116 16.1715481 -16 13 C-16.71810069 9.90432223 -16.52219549 8.28983157 -16 5 C-11.54101635 -0.66411436 -6.94158904 -2.17431096 0 0 Z M-11 6 C-11.33333333 9.5 -11.33333333 9.5 -11 13 C-9.05667668 15.37994368 -9.05667668 15.37994368 -5.5 15.25 C-1.94332332 15.37994368 -1.94332332 15.37994368 0 13 C0.33333333 9.5 0.33333333 9.5 0 6 C-1.94332332 3.62005632 -1.94332332 3.62005632 -5.5 3.75 C-9.05667668 3.62005632 -9.05667668 3.62005632 -11 6 Z " fill="#F8F8F7" transform="translate(283,154)"/>
<path d="M0 0 C2.68031126 0.87110116 3.8469899 1.55048618 5.5 3.8125 C5.5 4.8025 5.5 5.7925 5.5 6.8125 C2.73723823 6.28981534 0.1739124 5.70380413 -2.5 4.8125 C-1.27065985 8.50052044 0.43859378 9.53606973 3.5 11.8125 C5.15 10.8225 6.8 9.8325 8.5 8.8125 C9.5 11.8125 9.5 11.8125 8.5625 14 C8.0365625 14.8971875 8.0365625 14.8971875 7.5 15.8125 C8.49 16.4725 9.48 17.1325 10.5 17.8125 C10.5 18.4725 10.5 19.1325 10.5 19.8125 C7.72813012 19.92037818 4.96044463 19.99973327 2.1875 20.0625 C1.40181641 20.09601563 0.61613281 20.12953125 -0.19335938 20.1640625 C-6.00131918 20.26292139 -6.00131918 20.26292139 -8.55859375 17.953125 C-9.7968114 15.13759276 -9.37353648 13.72428828 -8.5 10.8125 C-8.355625 10.1525 -8.21125 9.4925 -8.0625 8.8125 C-5.46863045 -0.41014728 -5.46863045 -0.41014728 0 0 Z M-3.5 11.8125 C-3.83 13.1325 -4.16 14.4525 -4.5 15.8125 C-2.85 15.8125 -1.2 15.8125 0.5 15.8125 C-0.82 14.4925 -2.14 13.1725 -3.5 11.8125 Z " fill="#F4F4F4" transform="translate(185.5,153.1875)"/>
<path d="M0 0 C11.07826087 -0.60869565 11.07826087 -0.60869565 15.3125 2.1875 C17 5 17 5 16.8125 7.8125 C16.544375 8.534375 16.27625 9.25625 16 10 C15.01 10.33 14.02 10.66 13 11 C13.66 11.94875 14.32 12.8975 15 13.875 C17 17 17 17 17 19 C14.75 19.375 14.75 19.375 12 19 C9.875 16.0625 9.875 16.0625 8 13 C7.01 12.67 6.02 12.34 5 12 C5 13.98 5 15.96 5 18 C3.35 18.33 1.7 18.66 0 19 C0 12.73 0 6.46 0 0 Z M4 4 C4.33 5.32 4.66 6.64 5 8 C6.98 8 8.96 8 11 8 C11 6.68 11 5.36 11 4 C8.69 4 6.38 4 4 4 Z " fill="#FBFBFB" transform="translate(293,154)"/>
<path d="M0 0 C1.9375 1.875 1.9375 1.875 3 4 C3 4.99 3 5.98 3 7 C2.01 7.495 2.01 7.495 1 8 C1.66 8.33 2.32 8.66 3 9 C3.875 11.25 3.875 11.25 4 14 C2.625 16.8125 2.625 16.8125 0 19 C-3.1193768 19.66272474 -5.87616332 19.62476734 -9 19 C-11.5625 17.25 -11.5625 17.25 -13 15 C-13 13.68 -13 12.36 -13 11 C-12.34 10.67 -11.68 10.34 -11 10 C-11.66 9.34 -12.32 8.68 -13 8 C-12.9375 5.0625 -12.9375 5.0625 -12 2 C-8.10073386 -1.55521325 -4.94868351 -1.37463431 0 0 Z M-8 4 C-8 4.99 -8 5.98 -8 7 C-5.69 7 -3.38 7 -1 7 C-1.33 6.01 -1.66 5.02 -2 4 C-3.98 4 -5.96 4 -8 4 Z M-9 11 C-8.67 12.32 -8.34 13.64 -8 15 C-6.02 15 -4.04 15 -2 15 C-1.67 14.01 -1.34 13.02 -1 12 C-3.64 11.67 -6.28 11.34 -9 11 Z " fill="#F7F7F6" transform="translate(163,154)"/>
<path d="M0 0 C2.4375 2.4375 2.4375 2.4375 4 5 C4 5.66 4 6.32 4 7 C3.01 7.495 3.01 7.495 2 8 C2.66 8.66 3.32 9.32 4 10 C3.53846154 16.46153846 3.53846154 16.46153846 1 19 C-1.27734375 19.30078125 -1.27734375 19.30078125 -3.9375 19.3125 C-5.25041016 19.33763672 -5.25041016 19.33763672 -6.58984375 19.36328125 C-9 19 -9 19 -10.8046875 17.640625 C-12.45778535 15.37166716 -12.21111691 13.74451982 -12 11 C-12 9.35298039 -12.0825846 7.70617465 -12.1875 6.0625 C-12 3 -12 3 -10.625 1.1875 C-6.88626281 -1.5446541 -4.46617154 -1.07804141 0 0 Z M-7 4 C-7 4.99 -7 5.98 -7 7 C-5.02 7 -3.04 7 -1 7 C-1.33 6.01 -1.66 5.02 -2 4 C-3.65 4 -5.3 4 -7 4 Z M-9 11 C-8.34 12.32 -7.68 13.64 -7 15 C-5.02 15 -3.04 15 -1 15 C-1 14.01 -1 13.02 -1 12 C-3.70879335 10.64560332 -6.00933268 10.93498549 -9 11 Z " fill="#FBFBFB" transform="translate(344,154)"/>
<path d="M0 0 C1.65 0 3.3 0 5 0 C5 2.31 5 4.62 5 7 C7.31 7 9.62 7 12 7 C12 4.69 12 2.38 12 0 C13.65 0 15.3 0 17 0 C17 6.27 17 12.54 17 19 C15.35 19 13.7 19 12 19 C12 16.36 12 13.72 12 11 C9.69 11 7.38 11 5 11 C5 13.64 5 16.28 5 19 C3.35 19 1.7 19 0 19 C0 12.73 0 6.46 0 0 Z " fill="#FDFDFD" transform="translate(50,154)"/>
<path d="M0 0 C4.62 0 9.24 0 14 0 C14 1.32 14 2.64 14 4 C9.545 4.495 9.545 4.495 5 5 C5 5.66 5 6.32 5 7 C7.64 7 10.28 7 13 7 C13 8.32 13 9.64 13 11 C10.36 11.33 7.72 11.66 5 12 C5 12.66 5 13.32 5 14 C8.3 14.33 11.6 14.66 15 15 C14.67 16.32 14.34 17.64 14 19 C9.38 19 4.76 19 0 19 C0 12.73 0 6.46 0 0 Z " fill="#F9F9F8" transform="translate(228,154)"/>
<path d="M0 0 C4.62 0 9.24 0 14 0 C14 1.32 14 2.64 14 4 C9.545 4.495 9.545 4.495 5 5 C5 5.66 5 6.32 5 7 C7.64 7 10.28 7 13 7 C13 8.32 13 9.64 13 11 C10.36 11.33 7.72 11.66 5 12 C5 12.66 5 13.32 5 14 C7.97 14.33 10.94 14.66 14 15 C14 16.32 14 17.64 14 19 C9.38 19 4.76 19 0 19 C0 12.73 0 6.46 0 0 Z " fill="#F7F7F7" transform="translate(115,154)"/>
<path d="M0 0 C5.28 0 10.56 0 16 0 C16 1.32 16 2.64 16 4 C14.35 4 12.7 4 11 4 C11 8.95 11 13.9 11 19 C9.35 19 7.7 19 6 19 C6 14.05 6 9.1 6 4 C4.02 4 2.04 4 0 4 C0 2.68 0 1.36 0 0 Z " fill="#FCFCFC" transform="translate(312,154)"/>
<path d="M0 0 C1.65 0 3.3 0 5 0 C5 4.95 5 9.9 5 15 C7.64 15 10.28 15 13 15 C13 16.32 13 17.64 13 19 C8.71 19 4.42 19 0 19 C0 12.73 0 6.46 0 0 Z " fill="#ECECEC" transform="translate(134,154)"/>
<path d="M0 0 C5.28 0 10.56 0 16 0 C16 1.32 16 2.64 16 4 C14.02 4 12.04 4 10 4 C10 8.95 10 13.9 10 19 C8.68 19 7.36 19 6 19 C6 14.05 6 9.1 6 4 C4.02 4 2.04 4 0 4 C0 2.68 0 1.36 0 0 Z " fill="#FAFAFA" transform="translate(95,154)"/>
<path d="M0 0 C3 0.25 3 0.25 5 2.25 C5.375 4.6875 5.375 4.6875 5 7.25 C3.3125 9.1875 3.3125 9.1875 1 10.25 C-1.39263407 9.58228817 -3.22097385 9.02902615 -5 7.25 C-5.1875 4.8125 -5.1875 4.8125 -5 2.25 C-3 0.25 -3 0.25 0 0 Z " fill="#F6F6F6" transform="translate(116,90.75)"/>
<path d="M0 0 C3 0.25 3 0.25 5 2.25 C5.4375 4.6875 5.4375 4.6875 5 7.25 C2.75 9.1875 2.75 9.1875 0 10.25 C-2.25 9.8125 -2.25 9.8125 -4 8.25 C-4.875 5.25 -4.875 5.25 -5 2.25 C-3 0.25 -3 0.25 0 0 Z " fill="#F9F9F8" transform="translate(98,90.75)"/>
<path d="M0 0 C0.99 0 1.98 0 3 0 C3 5.28 3 10.56 3 16 C5.64 16 8.28 16 11 16 C11 16.33 11 16.66 11 17 C7.37 17 3.74 17 0 17 C0 11.39 0 5.78 0 0 Z " fill="#FBFBFB" transform="translate(135,154)"/>
<path d="M0 0 C0.33 0 0.66 0 1 0 C1 2.64 1 5.28 1 8 C-4.28 8 -9.56 8 -15 8 C-15 10.97 -15 13.94 -15 17 C-15.66 17 -16.32 17 -17 17 C-17.02688151 15.35425434 -17.04634123 13.70838587 -17.0625 12.0625 C-17.07410156 11.14597656 -17.08570313 10.22945312 -17.09765625 9.28515625 C-17 7 -17 7 -16 6 C-13.30345146 5.92680379 -10.63308542 5.90757463 -7.9375 5.9375 C-7.17888672 5.94201172 -6.42027344 5.94652344 -5.63867188 5.95117188 C-3.75908129 5.9629932 -1.87953101 5.98092922 0 6 C0 4.02 0 2.04 0 0 Z " fill="#F2F2F2" transform="translate(197,121)"/>
<path d="M0 0 C0.66 0.33 1.32 0.66 2 1 C1.34 1.66 0.68 2.32 0 3 C0 3.99 0 4.98 0 6 C0 6.99 0 7.98 0 9 C-0.66 9.66 -1.32 10.32 -2 11 C-2.2500773 13.54190002 -2.2500773 13.54190002 -2 16 C-0.83752049 17.38929654 -0.83752049 17.38929654 2.375 17.125 C5.95322972 17.17300461 5.95322972 17.17300461 9 16 C12 16 12 16 15 17 C15 17.66 15 18.32 15 19 C12.22813012 19.10787818 9.46044463 19.18723327 6.6875 19.25 C5.90181641 19.28351563 5.11613281 19.31703125 4.30664062 19.3515625 C-1.50131918 19.45042139 -1.50131918 19.45042139 -4.05859375 17.140625 C-5.2968114 14.32509276 -4.87353648 12.91178828 -4 10 C-3.855625 9.34 -3.71125 8.68 -3.5625 8 C-1.82608696 1.82608696 -1.82608696 1.82608696 0 0 Z " fill="#EAE9E9" transform="translate(181,154)"/>
<path d="M0 0 C1.32 0 2.64 0 4 0 C4.33 1.32 4.66 2.64 5 4 C9.47883696 3.55296014 9.47883696 3.55296014 13 1 C12.67 2.32 12.34 3.64 12 5 C10.02 5 8.04 5 6 5 C6 5.66 6 6.32 6 7 C8.64 6.67 11.28 6.34 14 6 C13.67 6.66 13.34 7.32 13 8 C4.91111111 8.62222222 4.91111111 8.62222222 1.4375 6.25 C0 4 0 4 0 0 Z " fill="#EDEDEC" transform="translate(150,165)"/>
<path d="M0 0 C1.9375 1.875 1.9375 1.875 3 4 C3 4.99 3 5.98 3 7 C1.68 7 0.36 7 -1 7 C-1.33 6.34 -1.66 5.68 -2 5 C-5.02934491 4.34227572 -5.02934491 4.34227572 -8 4 C-7.67 3.34 -7.34 2.68 -7 2 C-4.03 2.495 -4.03 2.495 -1 3 C-1 2.34 -1 1.68 -1 1 C-2.258125 1.12375 -3.51625 1.2475 -4.8125 1.375 C-5.52019531 1.44460937 -6.22789062 1.51421875 -6.95703125 1.5859375 C-9.29988142 1.92665391 -9.29988142 1.92665391 -12 4 C-11.1875 2.0625 -11.1875 2.0625 -10 0 C-6.20519658 -1.26493447 -3.87641726 -0.89988258 0 0 Z " fill="#F0F0EF" transform="translate(163,154)"/>
<path d="M0 0 C4.29 0 8.58 0 13 0 C13 0.66 13 1.32 13 2 C10.69 2 8.38 2 6 2 C7.32 3.32 8.64 4.64 10 6 C6.7 5.01 3.4 4.02 0 3 C0 2.01 0 1.02 0 0 Z " fill="#EEEEEE" transform="translate(190,76)"/>
<path d="M0 0 C2.97 0 5.94 0 9 0 C9.33 1.32 9.66 2.64 10 4 C9.67 3.34 9.34 2.68 9 2 C6.69 2 4.38 2 2 2 C2.33 3.65 2.66 5.3 3 7 C0 3.375 0 3.375 0 0 Z " fill="#F0F0EF" transform="translate(129,103)"/>
<path d="M0 0 C2.97 0 5.94 0 9 0 C8.34 1.32 7.68 2.64 7 4 C7 3.34 7 2.68 7 2 C4.36 2.33 1.72 2.66 -1 3 C-0.67 2.01 -0.34 1.02 0 0 Z " fill="#EEEEED" transform="translate(161,103)"/>
<path d="M0 0 C0.66 0.33 1.32 0.66 2 1 C1.01 2.485 1.01 2.485 0 4 C0.66 4.33 1.32 4.66 2 5 C-0.875 5.125 -0.875 5.125 -4 5 C-4.66 4.34 -5.32 3.68 -6 3 C-4.68 3 -3.36 3 -2 3 C-2 2.34 -2 1.68 -2 1 C-1.34 0.67 -0.68 0.34 0 0 Z " fill="#F3F3F3" transform="translate(230,88)"/>
<path d="M0 0 C1.65 0 3.3 0 5 0 C5 0.99 5 1.98 5 3 C2.69 3.33 0.38 3.66 -2 4 C-1.34 2.68 -0.68 1.36 0 0 Z " fill="#F1F1F0" transform="translate(245,83)"/>
<path d="M0 0 C0.268125 0.598125 0.53625 1.19625 0.8125 1.8125 C1.98493467 3.97224808 3.19369282 5.35790256 5 7 C3.35 6.67 1.7 6.34 0 6 C-0.38218767 4.34385343 -0.71395102 2.67542976 -1 1 C-0.67 0.67 -0.34 0.34 0 0 Z " fill="#FDFDFD" transform="translate(179,165)"/>
</svg>
