<svg width="182" height="69" viewBox="0 0 182 69" fill="none" xmlns="http://www.w3.org/2000/svg">
  <g clip-path="url(#clip0_661_26)">
    <mask id="mask0_661_26" style="mask-type:luminance" maskUnits="userSpaceOnUse" x="0" y="0" width="56" height="44">
      <path d="M0.193604 43.0334V0.145264H28.0954H55.9973V43.0334H0.193604Z" fill="white"/>
    </mask>
    <g mask="url(#mask0_661_26)">
      <path fill-rule="evenodd" clip-rule="evenodd" d="M55.9973 0.145264H45.6323C46.7488 0.78583 47.4168 2.33138 47.4168 4.00356C47.4168 5.54539 47.0263 7.6682 46.2454 10.048L41.0629 26.5724L31.7596 0.145264H23.4018C25.7414 2.20104 26.8547 6.37962 25.1283 11.0126L19.0003 27.3433L9.75184 0.145264H0C1.56184 1.36681 2.73 4.1935 4.12404 8.11883L13.65 35.7042C14.9311 39.4321 16.38 41.3613 19.4456 43.0334L29.362 17.2506L36.1612 35.7042C37.5553 39.3688 38.9461 41.3613 42.0117 43.0334L55.9973 0.145264Z" fill="white"/>
    </g>
    <path fill-rule="evenodd" clip-rule="evenodd" d="M78.4875 34.5023C76.0029 36.5736 73.4045 37.4801 69.7694 37.4801C67.8065 37.4801 66.0742 37.2853 64.8034 36.9594V26.3554H67.4587C70.6924 26.3554 71.7893 26.6139 72.6554 27.7113V21.5048H64.8034V12.7736C64.8034 12.7736 66.014 12.5788 68.4987 12.5788C71.3847 12.5788 73.4045 13.0957 74.5616 14.5191V8.11768H55.7375C57.2391 9.02039 57.4698 10.3801 57.4698 16.0061V34.049C57.4698 39.6788 57.2391 41.0347 55.7375 41.9412H76.3507L78.4875 34.5023Z" fill="white"/>
    <path fill-rule="evenodd" clip-rule="evenodd" d="M102.375 32.0832C102.375 21.8298 88.4495 22.5349 88.4495 16.2559C88.4495 14.3967 89.9397 12.7972 92.5183 12.7972C95.2696 12.7972 97.6192 13.8846 100.198 16.6418V9.33488C97.5628 8.56671 95.4421 8.11768 92.8071 8.11768C87.0756 8.11768 81.2313 11.9623 81.2313 18.3081C81.2313 29.8381 95.1567 28.1756 95.1567 34.6438C95.1567 36.9521 93.3215 38.6183 90.1687 38.6183C86.6176 38.6183 83.1794 37.0152 79.625 33.5565L81.5167 41.5648C84.3808 42.7189 86.7902 43.2941 89.4253 43.2941C96.7597 43.2941 102.375 38.8113 102.375 32.0832Z" fill="white"/>
    <path fill-rule="evenodd" clip-rule="evenodd" d="M127.4 8.11768H102.899L101.238 14.5191C103.072 13.0957 104.737 12.5788 107.777 12.5788H110.702V34.049C110.702 39.6788 110.472 41.0347 108.924 41.9412H119.654C118.162 41.0347 117.933 39.6788 117.933 34.049V12.5788H120.515C123.21 12.5788 125.047 13.032 125.964 14.5191L127.4 8.11768Z" fill="white"/>
    <path fill-rule="evenodd" clip-rule="evenodd" d="M141.05 41.9412C139.626 41.0347 139.408 39.6788 139.408 34.049V16.0061C139.408 10.3801 139.626 9.02039 141.05 8.11768H130.812C132.236 9.02039 132.455 10.3801 132.455 16.0061V34.049C132.455 39.6788 132.236 41.0347 130.812 41.9412H141.05Z" fill="white"/>
    <path fill-rule="evenodd" clip-rule="evenodd" d="M176.312 8.11768H166.483C168.437 9.27003 168.667 11.7123 168.667 15.4333V29.0385L156.074 12.3517C154.812 10.6194 153.946 9.33694 153.143 8.11768H144.462C146.244 9.27003 147.106 11.4558 147.106 16.0095V34.3691C147.106 38.0901 146.877 40.5286 144.922 41.6847H154.752C152.797 40.5286 152.567 38.0901 152.567 34.3691V20.5037L165.56 37.7035C167.402 40.1458 169.759 41.1717 174.128 41.9412V15.4333C174.128 11.7123 174.414 9.27003 176.312 8.11768Z" fill="white"/>
    <mask id="mask1_661_26" style="mask-type:luminance" maskUnits="userSpaceOnUse" x="7" y="57" width="26" height="12">
      <path d="M32.3164 68.7768H7.98779V57.6987H32.3164V68.7768Z" fill="white"/>
    </mask>
    <g mask="url(#mask1_661_26)">
      <path fill-rule="evenodd" clip-rule="evenodd" d="M15.3897 63.4899V66.4515C15.3897 67.1845 15.4927 68.3788 14.7485 68.6913V68.7397H17.5359V68.6913C16.7917 68.3788 16.8781 67.1845 16.8781 66.4515V60.2679C16.8781 59.5312 16.7917 58.3369 17.5359 58.0281V57.9797H14.7485V58.0281C15.4927 58.3369 15.3897 59.5312 15.3897 60.2828V62.3105H10.1173V60.2828C10.1173 59.5312 10.031 58.3369 10.7618 58.0281V57.9797H7.98779V58.0281C8.73197 58.3369 8.62898 59.5312 8.62898 60.2679V66.4515C8.62898 67.1845 8.71536 68.3788 7.98779 68.6913V68.7397H10.7618V68.6913C10.031 68.3788 10.1173 67.1845 10.1173 66.4515V63.4899H15.3897Z" fill="white"/>
    </g>
    <mask id="mask2_661_26" style="mask-type:luminance" maskUnits="userSpaceOnUse" x="7" y="57" width="26" height="12">
      <path d="M32.3164 68.7768H7.98779V57.6987H32.3164V68.7768Z" fill="white"/>
    </mask>
    <g mask="url(#mask2_661_26)">
      <path fill-rule="evenodd" clip-rule="evenodd" d="M26.9877 58.88C29.2933 58.88 30.6521 61.1831 30.6521 63.5717C30.6521 66.0087 29.2335 67.8243 27.0176 67.8243C24.7219 67.8243 23.2767 65.4692 23.2767 63.1773C23.2767 60.7106 24.7219 58.88 26.9877 58.88ZM27.0873 57.7006C24.0242 57.6188 21.6123 60.2194 21.6123 63.3261C21.6123 66.6784 24.0508 69 26.9445 69C29.8481 69 32.3165 66.5779 32.3165 63.2443C32.3165 60.3013 30.1537 57.682 27.0873 57.7006Z" fill="white"/>
    </g>
    <path fill-rule="evenodd" clip-rule="evenodd" d="M39.3343 59.4614H40.5104C40.941 59.4614 41.4638 59.5429 41.633 60.1131H41.6717L42.0875 58.1765H42.0488C41.8796 58.2728 41.6717 58.2913 41.4489 58.2913H36.2544C36.0851 58.258 35.9158 58.258 35.7584 58.1765H35.7198L35.2625 60.1131H35.3011C35.705 59.6392 36.293 59.4614 36.8544 59.4614H38.0037V66.7228C38.0037 67.4522 38.081 68.6409 37.4276 68.9519V69H40.0144V68.9519C39.3224 68.4446 39.3343 67.8114 39.3343 66.882V59.4614Z" fill="white"/>
    <path fill-rule="evenodd" clip-rule="evenodd" d="M47.3099 63.7591H48.2205C48.6015 63.7591 49.1198 63.7443 49.3159 64.216H49.3524V62.4851H49.3159C49.1675 62.5817 48.9713 62.5817 48.7752 62.5817H47.3099V59.5471C47.7022 59.4468 48.1336 59.432 48.5651 59.432C49.131 59.432 49.6353 59.4988 50.0192 60.0857H50.0556V58.1765H50.0192C49.8595 58.2917 49.6494 58.2582 49.4392 58.2582H45.5V58.3065C46.1276 58.6148 46.0519 59.8071 46.0519 60.5574V66.7157C46.0519 67.4475 46.1276 68.6546 45.5 68.9518V69H50.6328L51.1875 66.8606H51.1511C50.5347 67.5775 49.6858 67.9229 48.8733 67.8226L47.3099 67.6295V63.7591Z" fill="white"/>
    <mask id="mask3_661_26" style="mask-type:luminance" maskUnits="userSpaceOnUse" x="56" y="57" width="38" height="12">
      <path d="M93.22 68.7769H56.2476V57.7156H93.22V68.7769Z" fill="white"/>
    </mask>
    <g mask="url(#mask3_661_26)">
      <path fill-rule="evenodd" clip-rule="evenodd" d="M58.3335 67.4151V60.2828C58.3335 59.5498 58.2366 58.3369 58.9599 58.0281V57.9797H56.2476V58.0281C56.9709 58.3369 56.8869 59.5312 56.8869 60.2828V66.4515C56.8869 67.1845 56.9709 68.3937 56.2476 68.6913V68.7397H62.0824L62.8186 66.5631H62.7767C62.0663 67.2514 61.23 67.6272 60.2645 67.5603L58.3335 67.4151Z" fill="white"/>
    </g>
    <mask id="mask4_661_26" style="mask-type:luminance" maskUnits="userSpaceOnUse" x="56" y="57" width="38" height="12">
      <path d="M93.22 68.7769H56.2476V57.7156H93.22V68.7769Z" fill="white"/>
    </mask>
    <g mask="url(#mask4_661_26)">
      <path fill-rule="evenodd" clip-rule="evenodd" d="M72.0892 58.0765C71.4079 57.8309 70.6846 57.7156 69.9774 57.7156C68.2434 57.7156 66.4126 58.5006 66.4126 60.5618C66.4126 64.0294 71.2949 63.5718 71.2949 66.1204C71.2949 67.2663 70.0743 67.8244 69.267 67.8244C68.1595 67.8244 66.9938 67.2998 66.1575 66.4664L66.5708 68.509C67.378 68.8513 68.2434 69.0001 69.1088 69.0001C71.3239 69.0001 72.9126 67.3668 72.9126 65.6144C72.9126 62.5895 68.0303 62.623 68.0303 60.3832C68.0303 59.2522 69.0539 58.895 69.8612 58.895C70.6587 58.895 71.537 59.2708 72.0892 59.9256V58.0765Z" fill="white"/>
    </g>
    <mask id="mask5_661_26" style="mask-type:luminance" maskUnits="userSpaceOnUse" x="56" y="57" width="38" height="12">
      <path d="M93.22 68.7769H56.2476V57.7156H93.22V68.7769Z" fill="white"/>
    </mask>
    <g mask="url(#mask5_661_26)">
      <path fill-rule="evenodd" clip-rule="evenodd" d="M88.0827 66.4664C87.5854 67.218 86.8621 67.8728 85.9967 67.8728C84.9021 67.8728 84.0076 67.0691 84.0076 65.7297C84.0076 64.714 84.5889 63.8806 85.2863 63.3113L88.0827 66.4664ZM85.5285 61.4287C85.1443 61.0381 84.534 60.3832 84.534 59.7284C84.534 59.1071 84.9602 58.7945 85.4704 58.7945C85.9967 58.7945 86.4488 59.1703 86.4488 59.7954C86.4488 60.4651 85.9806 61.0529 85.5285 61.4287ZM93.2201 68.7397V68.6913C90.5367 67.2663 88.4508 64.7326 86.3358 62.3961C86.988 61.7226 87.5693 61.0529 87.5693 59.974C87.5693 58.616 86.6619 57.7156 85.5285 57.7156C84.421 57.7156 83.3134 58.6346 83.3134 59.9889C83.3134 60.9041 83.9237 61.6743 84.45 62.2956C83.4135 63.2444 82.49 64.208 82.49 65.8265C82.49 67.8579 84.0948 68.9518 85.6964 68.9518C87.0591 68.9518 87.9245 68.3788 88.651 67.0356C89.0901 67.5268 89.8264 68.1667 90.3398 68.4755C90.7208 68.7062 91.1761 68.7397 91.6734 68.7397H93.2201Z" fill="white"/>
    </g>
    <path fill-rule="evenodd" clip-rule="evenodd" d="M101.238 58.1765V58.2252C101.923 58.5358 101.828 59.7372 101.828 60.4932V66.6984C101.828 67.4356 101.923 68.652 101.238 68.9514V69H103.805V68.9514C103.12 68.652 103.199 67.4544 103.199 66.6984V59.3292C103.508 59.2619 103.805 59.2132 104.114 59.1945C105.017 59.1458 105.849 59.8345 105.849 61.0209C105.849 62.5666 104.598 63.1766 103.523 63.3712L104.76 65.6916L106.4 68.1767C106.804 68.783 107.248 69 107.961 69H109.2C108.432 68.4087 107.584 67.5517 107.021 66.6984L105.084 63.7193C106.186 63.4049 107.223 62.2709 107.223 60.8225C107.223 59.3292 106.241 58.1765 104.438 58.1765H101.238Z" fill="white"/>
    <mask id="mask6_661_26" style="mask-type:luminance" maskUnits="userSpaceOnUse" x="113" y="57" width="33" height="12">
      <path d="M145.039 68.7768H113.19V57.6987H145.039V68.7768Z" fill="white"/>
    </mask>
    <g mask="url(#mask6_661_26)">
      <path fill-rule="evenodd" clip-rule="evenodd" d="M115.321 63.4897H116.393C116.845 63.4897 117.452 63.4749 117.686 63.9474H117.729V62.2136H117.686C117.511 62.3103 117.28 62.3103 117.046 62.3103H115.321V59.2706C115.786 59.1701 116.294 59.1553 116.802 59.1553C117.468 59.1553 118.062 59.2222 118.511 59.8101H118.553V57.8977H118.511C118.323 58.013 118.075 57.9796 117.831 57.9796H113.19V58.0279C113.929 58.3367 113.843 59.531 113.843 60.2826V66.4513C113.843 67.1843 113.929 68.3935 113.19 68.6911V68.7395H119.236L119.889 66.5964H119.847C119.121 67.3145 118.118 67.6605 117.161 67.5601L115.321 67.3666V63.4897Z" fill="white"/>
    </g>
    <mask id="mask7_661_26" style="mask-type:luminance" maskUnits="userSpaceOnUse" x="113" y="57" width="33" height="12">
      <path d="M145.039 68.7768H113.19V57.6987H145.039V68.7768Z" fill="white"/>
    </mask>
    <g mask="url(#mask7_661_26)">
      <path fill-rule="evenodd" clip-rule="evenodd" d="M129.68 58.0765C128.984 57.8309 128.245 57.7156 127.523 57.7156C125.751 57.7156 123.881 58.5006 123.881 60.5618C123.881 64.0294 128.869 63.5718 128.869 66.1204C128.869 67.2663 127.622 67.8244 126.797 67.8244C125.666 67.8244 124.478 67.2998 123.62 66.4664L124.043 68.509C124.867 68.8513 125.751 69.0001 126.635 69.0001C128.898 69.0001 130.521 67.3668 130.521 65.6144C130.521 62.5895 125.534 62.623 125.534 60.3832C125.534 59.2522 126.579 58.895 127.404 58.895C128.216 58.895 129.116 59.2708 129.68 59.9256V58.0765Z" fill="white"/>
    </g>
    <mask id="mask8_661_26" style="mask-type:luminance" maskUnits="userSpaceOnUse" x="113" y="57" width="33" height="12">
      <path d="M145.039 68.7768H113.19V57.6987H145.039V68.7768Z" fill="white"/>
    </mask>
    <g mask="url(#mask8_661_26)">
      <path fill-rule="evenodd" clip-rule="evenodd" d="M139.748 58.88C142.037 58.88 143.387 61.1831 143.387 63.5717C143.387 66.0087 141.981 67.8243 139.778 67.8243C137.498 67.8243 136.067 65.4692 136.067 63.1773C136.067 60.7106 137.498 58.88 139.748 58.88ZM139.85 57.7006C136.806 57.6188 134.411 60.2194 134.411 63.3261C134.411 66.6784 136.832 69 139.705 69C142.588 69 145.039 66.5779 145.039 63.2443C145.039 60.3013 142.895 57.682 139.85 57.7006Z" fill="white"/>
    </g>
    <path fill-rule="evenodd" clip-rule="evenodd" d="M147.875 58.1765V58.2252C148.564 58.5358 148.469 59.7372 148.469 60.4932V66.6984C148.469 67.4356 148.564 68.652 147.875 68.9514V69H150.446V68.9514C149.76 68.652 149.84 67.4544 149.84 66.6984V59.3292C150.149 59.2619 150.446 59.2132 150.755 59.1945C151.657 59.1458 152.49 59.8345 152.49 61.0209C152.49 62.5666 151.238 63.1766 150.164 63.3712L151.4 65.6916L153.041 68.1767C153.444 68.783 153.888 69 154.601 69H155.838C155.072 68.4087 154.225 67.5517 153.662 66.6984L151.725 63.7193C152.826 63.4049 153.861 62.2709 153.861 60.8225C153.861 59.3292 152.881 58.1765 151.079 58.1765H147.875Z" fill="white"/>
    <mask id="mask9_661_26" style="mask-type:luminance" maskUnits="userSpaceOnUse" x="157" y="57" width="19" height="12">
      <path d="M175.859 68.7769H157.817V57.7156H175.859V68.7769Z" fill="white"/>
    </mask>
    <g mask="url(#mask9_661_26)">
      <path fill-rule="evenodd" clip-rule="evenodd" d="M162.53 59.1555H163.892C164.39 59.1555 164.992 59.2374 165.188 59.8104H165.236L165.717 57.8645H165.672C165.477 57.9612 165.236 57.9798 164.978 57.9798H158.965C158.769 57.9464 158.573 57.9464 158.391 57.8645H158.347L157.817 59.8104H157.862C158.329 59.3341 159.01 59.1555 159.66 59.1555H160.99V66.4516C160.99 67.1846 161.08 68.3789 160.323 68.6914V68.7398H163.318V68.6914C162.517 68.1817 162.53 67.5455 162.53 66.6116V59.1555Z" fill="white"/>
    </g>
    <mask id="mask10_661_26" style="mask-type:luminance" maskUnits="userSpaceOnUse" x="157" y="57" width="19" height="12">
      <path d="M175.859 68.7769H157.817V57.7156H175.859V68.7769Z" fill="white"/>
    </mask>
    <g mask="url(#mask10_661_26)">
      <path fill-rule="evenodd" clip-rule="evenodd" d="M174.982 58.0765C174.257 57.8309 173.487 57.7156 172.73 57.7156C170.888 57.7156 168.938 58.5006 168.938 60.5618C168.938 64.0294 174.136 63.5718 174.136 66.1204C174.136 67.2663 172.837 67.8244 171.974 67.8244C170.795 67.8244 169.557 67.2998 168.667 66.4664L169.103 68.509C169.966 68.8513 170.888 69.0001 171.809 69.0001C174.167 69.0001 175.859 67.3668 175.859 65.6144C175.859 62.5895 170.661 62.623 170.661 60.3832C170.661 59.2522 171.747 58.895 172.61 58.895C173.456 58.895 174.391 59.2708 174.982 59.9256V58.0765Z" fill="white"/>
    </g>
    <path fill-rule="evenodd" clip-rule="evenodd" d="M178.57 12.6127V11.404H179.238C179.578 11.404 179.945 11.4923 179.945 11.9765C179.945 12.5774 179.573 12.6127 179.156 12.6127H178.57ZM178.57 13.1146H179.136L179.989 14.804H180.537L179.617 13.0863C180.091 13.0156 180.455 12.7117 180.455 12.0119C180.455 11.2414 180.077 10.9021 179.312 10.9021H178.08V14.804H178.57V13.1146ZM179.165 16.2354C180.692 16.2354 182 14.804 182 12.846C182 10.9021 180.692 9.4707 179.165 9.4707C177.62 9.4707 176.312 10.9021 176.312 12.846C176.312 14.804 177.62 16.2354 179.165 16.2354ZM176.878 12.846C176.878 11.2414 177.881 10.0362 179.165 10.0362C180.434 10.0362 181.437 11.2414 181.437 12.846C181.437 14.4718 180.434 15.6735 179.165 15.6735C177.881 15.6735 176.878 14.4718 176.878 12.846Z" fill="white"/>
  </g>
  <defs>
    <clipPath id="clip0_661_26">
      <rect width="182" height="69" fill="white"/>
    </clipPath>
  </defs>
</svg>
