<?xml version="1.0" encoding="UTF-8"?>
<svg width="160px" height="51px" viewBox="0 0 160 51" version="1.1" xmlns="http://www.w3.org/2000/svg" xmlns:xlink="http://www.w3.org/1999/xlink">
    <!-- Generator: Sketch 49 (51002) - http://www.bohemiancoding.com/sketch -->
    <title>wespms-186426-Westin Hotels Resorts Brand Logo SPOT color version Standard Print and web-EPS</title>
    <desc>Created with Sketch.</desc>
    <defs>
        <polygon id="path-1" points="0.170212766 31.8073118 0.170212766 0.107354839 24.6992908 0.107354839 49.2283688 0.107354839 49.2283688 31.8073118"></polygon>
        <polygon id="path-3" points="21.4100317 8.835 0.0222222222 8.835 0.0222222222 0.646859698 21.4100317 0.646859698 21.4100317 8.835"></polygon>
        <polygon id="path-5" points="32.9517419 8.835 0.448516129 8.835 0.448516129 0.65925 32.9517419 0.65925 32.9517419 8.835"></polygon>
        <polygon id="path-7" points="28.507 8.835 0.5075 8.835 0.5075 0.646859698 28.507 0.646859698 28.507 8.835"></polygon>
        <polygon id="path-9" points="16.6010667 8.835 0.740444444 8.835 0.740444444 0.65925 16.6010667 0.65925"></polygon>
    </defs>
    <g id="Symbols" stroke="none" stroke-width="1" fill="none" fill-rule="evenodd">
        <g id="Header/Desktop/Signed-Off" transform="translate(-119.000000, -58.000000)">
            <g id="wespms-186426-Westin-Hotels-Resorts-Brand-Logo-SPOT-color-version-Standard-Print-and-web-EPS">
                <g transform="translate(119.000000, 58.000000)">
                    <g id="Group-3">
                        <mask id="mask-2" fill="white">
                            <use xlink:href="#path-1"></use>
                        </mask>
                        <g id="Clip-2"></g>
                        <path d="M49.2283688,0.107354839 L40.1163121,0.107354839 C41.0978723,0.580817204 41.6851064,1.7231828 41.6851064,2.95913978 C41.6851064,4.09875269 41.341844,5.66778495 40.6553191,7.42675269 L36.0992908,19.6404301 L27.9205674,0.107354839 L20.5730496,0.107354839 C22.6297872,1.62683871 23.6085106,4.71535484 22.0907801,8.13969892 L16.7035461,20.2102366 L8.57304965,0.107354839 L0,0.107354839 C1.37304965,1.01023656 2.4,3.09952688 3.62553191,6.00086022 L12,26.3900215 C13.1262411,29.1454624 14.4,30.5713548 17.0950355,31.8073118 L25.812766,12.7504516 L31.7900709,26.3900215 C33.0156028,29.0986667 34.2382979,30.5713548 36.9333333,31.8073118 L49.2283688,0.107354839" id="Fill-1" fill="#636668" mask="url(#mask-2)"></path>
                    </g>
                    <path d="M69,25.5016611 C66.8156696,27.0326689 64.5313832,27.7026578 61.3357342,27.7026578 C59.610025,27.7026578 58.0871674,27.5586932 56.9700132,27.3178295 L56.9700132,19.4800664 L59.3042775,19.4800664 C62.147141,19.4800664 63.1114214,19.6710963 63.8728502,20.4822813 L63.8728502,15.8947951 L56.9700132,15.8947951 L56.9700132,9.44130676 C56.9700132,9.44130676 58.0342496,9.29734219 60.21858,9.29734219 C62.755696,9.29734219 64.5313832,9.67940199 65.5485815,10.7314507 L65.5485815,6 L49,6 C50.3200059,6.66722038 50.5228576,7.67220377 50.5228576,11.8305648 L50.5228576,25.1666667 C50.5228576,29.3277962 50.3200059,30.3300111 49,31 L67.121417,31 L69,25.5016611" id="Fill-4" fill="#636668"></path>
                    <path d="M90,23.7136829 C90,16.1350353 77.757841,16.6561874 77.757841,12.0151915 C77.757841,10.6409959 79.0678337,9.45880367 81.3347921,9.45880367 C83.7534646,9.45880367 85.8191101,10.2624749 88.0860686,12.3004536 L88.0860686,6.89967296 C85.7695113,6.33189155 83.9051787,6 81.5886214,6 C76.5499635,6 71.412108,8.84164996 71.412108,13.5320181 C71.412108,22.0542251 83.654267,20.8254035 83.654267,25.6062876 C83.654267,27.3123747 82.0408461,28.5439392 79.2691466,28.5439392 C76.1473377,28.5439392 73.1247265,27.3590041 70,24.8026163 L71.6630197,30.7218061 C74.1808899,31.5748497 76.2990518,32 78.615609,32 C85.0634573,32 90,28.6865703 90,23.7136829" id="Fill-5" fill="#636668"></path>
                    <path d="M112,6 L90.4606884,6 L89,10.7314507 C90.6126,9.67940199 92.0762098,9.29734219 94.7492697,9.29734219 L97.3200813,9.29734219 L97.3200813,25.1666667 C97.3200813,29.3277962 97.1185063,30.3300111 95.7571447,31 L105.190271,31 C103.878572,30.3300111 103.676997,29.3277962 103.676997,25.1666667 L103.676997,9.29734219 L105.946907,9.29734219 C108.316144,9.29734219 109.931665,9.63233666 110.737965,10.7314507 L112,6" id="Fill-6" fill="#636668"></path>
                    <path d="M124,31 C122.748529,30.3300111 122.556209,29.3277962 122.556209,25.1666667 L122.556209,11.8305648 C122.556209,7.67220377 122.748529,6.66722038 124,6 L115,6 C116.251471,6.66722038 116.443791,7.67220377 116.443791,11.8305648 L116.443791,25.1666667 C116.443791,29.3277962 116.251471,30.3300111 115,31 L124,31" id="Fill-7" fill="#636668"></path>
                    <path d="M155,6 L146.358495,6 C148.076843,6.85174195 148.278829,8.65688537 148.278829,11.4071876 L148.278829,21.4632377 L137.207632,9.12946478 C136.09817,7.8491043 135.337062,6.90119793 134.631573,6 L127,6 C128.566127,6.85174195 129.324307,8.4673041 129.324307,11.8330586 L129.324307,25.4032311 C129.324307,28.1535334 129.122321,29.9559292 127.403973,30.8104187 L136.045478,30.8104187 C134.32713,29.9559292 134.125144,28.1535334 134.125144,25.4032311 L134.125144,15.1548522 L145.547622,27.8677877 C147.16644,29.6729311 149.238996,30.4312562 153.079665,31 L153.079665,11.4071876 C153.079665,8.65688537 153.331417,6.85174195 155,6" id="Fill-8" fill="#636668"></path>
                    <g id="Group-12" transform="translate(7.000000, 42.000000)">
                        <mask id="mask-4" fill="white">
                            <use xlink:href="#path-3"></use>
                        </mask>
                        <g id="Clip-10"></g>
                        <path d="M6.52939683,4.92725 L6.52939683,7.11625 C6.52939683,7.658 6.61993651,8.54075 5.96571429,8.77175 L5.96571429,8.8075 L8.41612698,8.8075 L8.41612698,8.77175 C7.76190476,8.54075 7.83784127,7.658 7.83784127,7.11625 L7.83784127,2.54575 C7.83784127,2.00125 7.76190476,1.1185 8.41612698,0.89025 L8.41612698,0.8545 L5.96571429,0.8545 L5.96571429,0.89025 C6.61993651,1.1185 6.52939683,2.00125 6.52939683,2.55675 L6.52939683,4.0555 L1.89434921,4.0555 L1.89434921,2.55675 C1.89434921,2.00125 1.8184127,1.1185 2.46095238,0.89025 L2.46095238,0.8545 L0.0222222222,0.8545 L0.0222222222,0.89025 C0.676444444,1.1185 0.585904762,2.00125 0.585904762,2.54575 L0.585904762,7.11625 C0.585904762,7.658 0.66184127,8.54075 0.0222222222,8.77175 L0.0222222222,8.8075 L2.46095238,8.8075 L2.46095238,8.77175 C1.8184127,8.54075 1.89434921,7.658 1.89434921,7.11625 L1.89434921,4.92725 L6.52939683,4.92725" id="Fill-9" fill="#636668" mask="url(#mask-4)"></path>
                        <path d="M16.7253333,1.52 C18.752254,1.52 19.9467937,3.22225 19.9467937,4.98775 C19.9467937,6.789 18.6996825,8.131 16.751619,8.131 C14.7334603,8.131 13.4629841,6.39025 13.4629841,4.69625 C13.4629841,2.873 14.7334603,1.52 16.7253333,1.52 Z M16.8129524,0.64825 C14.120127,0.58775 11.999746,2.51 11.999746,4.80625 C11.999746,7.284 14.1434921,9 16.6873651,9 C19.24,9 21.4100317,7.20975 21.4100317,4.74575 C21.4100317,2.5705 19.5086984,0.6345 16.8129524,0.64825 Z" id="Fill-11" fill="#636668" mask="url(#mask-4)"></path>
                    </g>
                    <path d="M34.5796345,43.9497092 L35.613577,43.9497092 C35.9921671,43.9497092 36.4516971,44.0099213 36.6005222,44.4314061 L36.6344648,44.4314061 L37,43 L36.9660574,43 C36.8172324,43.0711598 36.6344648,43.0848443 36.4386423,43.0848443 L31.8720627,43.0848443 C31.7232376,43.0602121 31.5744125,43.0602121 31.4360313,43 L31.4020888,43 L31,44.4314061 L31.0339426,44.4314061 C31.3890339,44.0810811 31.9060052,43.9497092 32.3994778,43.9497092 L33.4099217,43.9497092 L33.4099217,49.3167978 C33.4099217,49.8559699 33.4778068,50.7345193 32.9033943,50.9644201 L32.9033943,51 L35.1775457,51 L35.1775457,50.9644201 C34.5691906,50.5894629 34.5796345,50.1214506 34.5796345,49.4344851 L34.5796345,43.9497092" id="Fill-13" fill="#636668"></path>
                    <path d="M41.591133,47.1262869 L42.3916256,47.1262869 C42.726601,47.1262869 43.182266,47.1153054 43.3546798,47.4639671 L43.3866995,47.4639671 L43.3866995,46.1846259 L43.3546798,46.1846259 C43.2241379,46.2560055 43.0517241,46.2560055 42.8793103,46.2560055 L41.591133,46.2560055 L41.591133,44.0130405 C41.9359606,43.9389156 42.3152709,43.9279341 42.6945813,43.9279341 C43.1921182,43.9279341 43.635468,43.9773507 43.9729064,44.4111187 L44.0049261,44.4111187 L44.0049261,43 L43.9729064,43 C43.8325123,43.0851064 43.6477833,43.0603981 43.4630542,43.0603981 L40,43.0603981 L40,43.0960879 C40.5517241,43.3239533 40.4852217,44.2052162 40.4852217,44.7597804 L40.4852217,49.3115992 C40.4852217,49.8524365 40.5517241,50.7446809 40,50.9643102 L40,51 L44.5123153,51 L45,49.4186685 L44.9679803,49.4186685 C44.4261084,49.9485244 43.679803,50.2038435 42.9655172,50.1297186 L41.591133,49.9869595 L41.591133,47.1262869" id="Fill-14" fill="#636668"></path>
                    <g id="Group-19" transform="translate(49.000000, 42.000000)">
                        <mask id="mask-6" fill="white">
                            <use xlink:href="#path-5"></use>
                        </mask>
                        <g id="Clip-16"></g>
                        <path d="M2.28232258,7.8285 L2.28232258,2.55675 C2.28232258,2.015 2.19716129,1.1185 2.83303226,0.89025 L2.83303226,0.8545 L0.448516129,0.8545 L0.448516129,0.89025 C1.0843871,1.1185 1.01058065,2.00125 1.01058065,2.55675 L1.01058065,7.11625 C1.01058065,7.658 1.0843871,8.55175 0.448516129,8.77175 L0.448516129,8.8075 L5.57806452,8.8075 L6.22529032,7.19875 L6.1883871,7.19875 C5.56387097,7.7075 4.82864516,7.98525 3.97987097,7.93575 L2.28232258,7.8285" id="Fill-15" fill="#636668" mask="url(#mask-6)"></path>
                        <path d="M14.3752258,0.926 C13.7762581,0.7445 13.1403871,0.65925 12.5187097,0.65925 C10.9943226,0.65925 9.38477419,1.2395 9.38477419,2.763 C9.38477419,5.326 13.6769032,4.98775 13.6769032,6.8715 C13.6769032,7.7185 12.603871,8.131 11.8941935,8.131 C10.9205161,8.131 9.89574194,7.74325 9.16051613,7.12725 L9.52387097,8.637 C10.2335484,8.89 10.9943226,9 11.7550968,9 C13.7024516,9 15.0990968,7.79275 15.0990968,6.4975 C15.0990968,4.26175 10.8069677,4.2865 10.8069677,2.631 C10.8069677,1.795 11.7068387,1.531 12.4165161,1.531 C13.1176774,1.531 13.8898065,1.80875 14.3752258,2.29275 L14.3752258,0.926" id="Fill-17" fill="#636668" mask="url(#mask-6)"></path>
                        <path d="M28.4353548,7.12725 C27.9981935,7.68275 27.3623226,8.16675 26.6015484,8.16675 C25.6392258,8.16675 24.8529032,7.57275 24.8529032,6.58275 C24.8529032,5.832 25.363871,5.216 25.9770323,4.79525 L28.4353548,7.12725 Z M26.1899355,3.40375 C25.852129,3.115 25.3156129,2.631 25.3156129,2.147 C25.3156129,1.68775 25.6903226,1.45675 26.1388387,1.45675 C26.6015484,1.45675 26.9989677,1.7345 26.9989677,2.1965 C26.9989677,2.6915 26.5873548,3.126 26.1899355,3.40375 Z M32.9517419,8.8075 L32.9517419,8.77175 C30.5927742,7.7185 28.7589677,5.84575 26.8996129,4.11875 C27.4730323,3.621 27.984,3.126 27.984,2.3285 C27.984,1.32475 27.1863226,0.65925 26.1899355,0.65925 C25.2162581,0.65925 24.2425806,1.3385 24.2425806,2.3395 C24.2425806,3.016 24.7790968,3.58525 25.2418065,4.0445 C24.3305806,4.74575 23.5187097,5.458 23.5187097,6.65425 C23.5187097,8.15575 24.9295484,8.96425 26.3375484,8.96425 C27.5354839,8.96425 28.2962581,8.54075 28.9349677,7.548 C29.3210323,7.911 29.9682581,8.384 30.4196129,8.61225 C30.7545806,8.78275 31.1548387,8.8075 31.592,8.8075 L32.9517419,8.8075 Z" id="Fill-18" fill="#636668" mask="url(#mask-6)"></path>
                    </g>
                    <path d="M89,43 L89,43.0359613 C89.6026134,43.2655602 89.519216,44.153527 89.519216,44.7123098 L89.519216,49.2987552 C89.519216,49.8437068 89.6026134,50.7427386 89,50.9640387 L89,51 L91.2571099,51 L91.2571099,50.9640387 C90.6544965,50.7427386 90.7244427,49.857538 90.7244427,49.2987552 L90.7244427,43.8520055 C90.9961568,43.802213 91.2571099,43.7662517 91.528824,43.7524205 C92.3224443,43.7164592 93.0541891,44.2254495 93.0541891,45.1023513 C93.0541891,46.2448133 91.9538816,46.6957123 91.009608,46.8395574 L92.0964643,48.5546335 L93.538432,50.3914246 C93.8935434,50.8395574 94.283628,51 94.9104535,51 L96,51 C95.3247502,50.5629322 94.5795542,49.9294606 94.0845503,49.2987552 L92.3816295,47.0968188 C93.3501153,46.8644537 94.2621061,46.0262794 94.2621061,44.95574 C94.2621061,43.8520055 93.3985396,43 91.8139892,43 L89,43" id="Fill-20" fill="#636668"></path>
                    <g id="Group-25" transform="translate(99.000000, 42.000000)">
                        <mask id="mask-8" fill="white">
                            <use xlink:href="#path-7"></use>
                        </mask>
                        <g id="Clip-22"></g>
                        <path d="M2.3809,4.92725 L3.3234,4.92725 C3.7207,4.92725 4.2543,4.91625 4.4602,5.2655 L4.4979,5.2655 L4.4979,3.984 L4.4602,3.984 C4.3065,4.0555 4.1035,4.0555 3.8976,4.0555 L2.3809,4.0555 L2.3809,1.80875 C2.7898,1.7345 3.2364,1.7235 3.683,1.7235 C4.2688,1.7235 4.7908,1.773 5.1852,2.2075 L5.2229,2.2075 L5.2229,0.794 L5.1852,0.794 C5.0199,0.87925 4.8024,0.8545 4.5878,0.8545 L0.5075,0.8545 L0.5075,0.89025 C1.1571,1.1185 1.0817,2.00125 1.0817,2.55675 L1.0817,7.11625 C1.0817,7.658 1.1571,8.55175 0.5075,8.77175 L0.5075,8.8075 L5.8232,8.8075 L6.3974,7.2235 L6.3597,7.2235 C5.7217,7.75425 4.8401,8.01 3.9991,7.93575 L2.3809,7.79275 L2.3809,4.92725" id="Fill-21" fill="#636668" mask="url(#mask-8)"></path>
                        <path d="M15.0046,0.926 C14.3927,0.7445 13.7431,0.65925 13.108,0.65925 C11.5507,0.65925 9.9064,1.2395 9.9064,2.763 C9.9064,5.326 14.2912,4.98775 14.2912,6.8715 C14.2912,7.7185 13.195,8.131 12.47,8.131 C11.4753,8.131 10.4313,7.74325 9.6773,7.12725 L10.0485,8.637 C10.7735,8.89 11.5507,9 12.3279,9 C14.3173,9 15.7441,7.79275 15.7441,6.4975 C15.7441,4.26175 11.3593,4.2865 11.3593,2.631 C11.3593,1.795 12.2786,1.531 13.0036,1.531 C13.717,1.531 14.5087,1.80875 15.0046,2.29275 L15.0046,0.926" id="Fill-23" fill="#636668" mask="url(#mask-8)"></path>
                        <path d="M23.8554,1.52 C25.868,1.52 27.0541,3.22225 27.0541,4.98775 C27.0541,6.789 25.8187,8.131 23.8815,8.131 C21.8776,8.131 20.619,6.39025 20.619,4.69625 C20.619,2.873 21.8776,1.52 23.8554,1.52 Z M23.9453,0.64825 C21.2686,0.58775 19.1632,2.51 19.1632,4.80625 C19.1632,7.284 21.2918,9 23.8177,9 C26.3523,9 28.507,7.20975 28.507,4.74575 C28.507,2.5705 26.622,0.6345 23.9453,0.64825 Z" id="Fill-24" fill="#636668" mask="url(#mask-8)"></path>
                    </g>
                    <path d="M130,43 L130,43.0359613 C130.605304,43.2655602 130.521906,44.153527 130.521906,44.7123098 L130.521906,49.2987552 C130.521906,49.8437068 130.605304,50.7427386 130,50.9640387 L130,51 L132.2598,51 L132.2598,50.9640387 C131.657187,50.7427386 131.727133,49.857538 131.727133,49.2987552 L131.727133,43.8520055 C131.998847,43.802213 132.2598,43.7662517 132.531514,43.7524205 C133.325135,43.7164592 134.056879,44.2254495 134.056879,45.1023513 C134.056879,46.2448133 132.956572,46.6957123 132.012298,46.8395574 L133.099154,48.5546335 L134.541122,50.3914246 C134.896234,50.8395574 135.286318,51 135.913144,51 L137,51 C136.32744,50.5629322 135.582244,49.9294606 135.087241,49.2987552 L133.38432,47.0968188 C134.352806,46.8644537 135.262106,46.0262794 135.262106,44.95574 C135.262106,43.8520055 134.40123,43 132.816679,43 L130,43" id="Fill-26" fill="#636668"></path>
                    <g id="Group-30" transform="translate(138.000000, 42.000000)">
                        <mask id="mask-10" fill="white">
                            <use xlink:href="#path-9"></use>
                        </mask>
                        <g id="Clip-28"></g>
                        <path d="M4.88391111,1.7235 L6.08071111,1.7235 C6.51893333,1.7235 7.04782222,1.784 7.22008889,2.2075 L7.2624,2.2075 L7.68551111,0.76925 L7.64622222,0.76925 C7.47395556,0.84075 7.2624,0.8545 7.03573333,0.8545 L1.74986667,0.8545 C1.5776,0.82975 1.40533333,0.82975 1.24515556,0.76925 L1.20586667,0.76925 L0.740444444,2.2075 L0.779733333,2.2075 C1.19075556,1.8555 1.78915556,1.7235 2.36035556,1.7235 L3.52995556,1.7235 L3.52995556,7.11625 C3.52995556,7.658 3.60853333,8.54075 2.94364444,8.77175 L2.94364444,8.8075 L5.576,8.8075 L5.576,8.77175 C4.87182222,8.395 4.88391111,7.92475 4.88391111,7.2345 L4.88391111,1.7235" id="Fill-27" fill="#636668" mask="url(#mask-10)"></path>
                        <path d="M15.8304,0.926 C15.1927111,0.7445 14.5157333,0.65925 13.8508444,0.65925 C12.2309333,0.65925 10.5173333,1.2395 10.5173333,2.763 C10.5173333,5.326 15.0869333,4.98775 15.0869333,6.8715 C15.0869333,7.7185 13.9445333,8.131 13.1859556,8.131 C12.1493333,8.131 11.0613333,7.74325 10.2785778,7.12725 L10.6624,8.637 C11.4209778,8.89 12.2309333,9 13.0408889,9 C15.1141333,9 16.6010667,7.79275 16.6010667,6.4975 C16.6010667,4.26175 12.0314667,4.2865 12.0314667,2.631 C12.0314667,1.795 12.9864889,1.531 13.7450667,1.531 C14.4885333,1.531 15.3105778,1.80875 15.8304,2.29275 L15.8304,0.926" id="Fill-29" fill="#636668" mask="url(#mask-10)"></path>
                    </g>
                    <path d="M156.984536,9.32236155 L156.984536,8.42894462 L157.572165,8.42894462 C157.871134,8.42894462 158.193299,8.49425287 158.193299,8.85214211 C158.193299,9.29623824 157.865979,9.32236155 157.5,9.32236155 L156.984536,9.32236155 Z M156.984536,9.69331243 L157.481959,9.69331243 L158.231959,10.9420063 L158.713918,10.9420063 L157.904639,9.67241379 C158.322165,9.62016719 158.641753,9.39550679 158.641753,8.87826541 C158.641753,8.30877743 158.309278,8.05799373 157.636598,8.05799373 L156.554124,8.05799373 L156.554124,10.9420063 L156.984536,10.9420063 L156.984536,9.69331243 Z M157.507732,12 C158.850515,12 160,10.9420063 160,9.49477534 C160,8.05799373 158.850515,7 157.507732,7 C156.149485,7 155,8.05799373 155,9.49477534 C155,10.9420063 156.149485,12 157.507732,12 Z M155.497423,9.49477534 C155.497423,8.30877743 156.378866,7.41797283 157.507732,7.41797283 C158.623711,7.41797283 159.505155,8.30877743 159.505155,9.49477534 C159.505155,10.6964472 158.623711,11.5846395 157.507732,11.5846395 C156.378866,11.5846395 155.497423,10.6964472 155.497423,9.49477534 Z" id="Fill-31" fill="#636668"></path>
                </g>
            </g>
        </g>
    </g>
</svg>